<svg width="56" height="44" viewBox="0 0 56 44" fill="none" xmlns="http://www.w3.org/2000/svg">
<path d="M38.5959 18.0195L38.2332 34.4773C38.2332 34.4773 36.1776 37 28.0765 37C20.0962 37 18.8266 34.1169 18.8266 34.1169L18.5244 18.9805C18.1616 19.0406 18.9476 18.9805 18.5244 18.9805C14.232 19.0406 10 15.6169 10 11.3523C10 7.08766 13.5065 3.6039 17.7989 3.6039C18.8871 3.6039 19.9753 3.84416 20.9426 4.26461C22.2122 1.74188 24.9327 0 27.9556 0C30.8575 0 33.2153 1.62175 34.6058 3.96429C35.8754 3.00325 37.4472 2.52273 39.2005 2.52273C43.4929 2.52273 46.9993 5.94643 46.9993 10.2711C47.0598 14.5357 42.9488 18.0195 38.5959 18.0195C38.9586 18.0195 38.3541 18.0195 38.5959 18.0195Z" fill="white"/>
<path d="M9.90796 21.6009C9.90796 21.0431 9.85724 20.5866 9.80653 20.333C9.70509 19.7244 9.40079 19.1665 8.89363 18.7101C8.38646 18.2536 7.82858 18.0508 7.11855 18.0508C6.40852 18.0508 5.7492 18.3044 5.24203 18.8115C4.68415 18.3044 4.07555 18.0508 3.36552 18.0508C2.7062 18.0508 2.04689 18.3044 1.59044 18.7101C1.13399 19.1158 0.778974 19.623 0.626824 20.333C0.576107 20.6373 0.525391 21.0431 0.525391 21.6009V25.9626C0.525391 26.2162 0.728257 26.3176 0.880407 26.3176C1.13399 26.3176 1.23542 26.1147 1.23542 25.9626V21.4488C1.23542 20.6373 1.38757 19.978 1.74259 19.4708C2.09761 18.913 2.65549 18.6594 3.41624 18.6594C3.97412 18.6594 4.43057 18.8622 4.8363 19.268C4.48129 19.8766 4.32914 20.5359 4.32914 21.4488V25.9119C4.32914 26.1147 4.48129 26.2669 4.68415 26.2669C4.93773 26.2669 5.03917 26.064 5.03917 25.9119V21.3981C5.03917 20.7388 5.1406 20.2316 5.29275 19.8766C5.4449 20.2823 5.54633 20.8909 5.54633 21.6009V25.9626C5.54633 26.1654 5.69848 26.3176 5.90135 26.3176C6.15493 26.3176 6.25637 26.1147 6.25637 25.9626V21.2966C6.25637 20.3837 6.10422 19.7244 5.7492 19.2173C6.10422 18.8622 6.56067 18.6594 7.11855 18.6594C7.62571 18.6594 8.08216 18.8115 8.43718 19.1158C8.7922 19.3694 9.04578 19.7751 9.19793 20.2823C9.29936 20.5866 9.29936 20.9416 9.29936 21.4488V25.9626C9.29936 26.1654 9.45151 26.3176 9.65438 26.3176C9.90796 26.3176 10.0094 26.1147 10.0094 25.9626L9.95868 25.709V21.6009H9.90796Z" fill="black"/>
<path d="M18.1236 19.3188C17.3122 18.5073 16.2978 18.1016 15.1314 18.1016C13.9649 18.1016 12.9505 18.5073 12.1391 19.3188C11.3276 20.1302 10.9219 21.1446 10.9219 22.311C10.9219 23.4775 11.3276 24.4919 12.1898 25.3033C13.052 26.1148 14.0663 26.5205 15.2328 26.5205C16.095 26.5205 16.9064 26.2669 17.5657 25.8105V25.9119C17.5657 26.2669 17.7686 26.3684 17.9208 26.3684C18.0729 26.3684 18.2758 26.2162 18.2758 25.9119V25.2526C19.0872 24.3904 19.493 23.4268 19.493 22.311C19.3915 21.0938 18.9351 20.0795 18.1236 19.3188ZM17.4643 22.3618V24.999C16.7543 25.6076 15.9935 25.9119 15.1314 25.9119C14.1677 25.9119 13.3056 25.5569 12.6462 24.8469C11.9362 24.1876 11.6319 23.3761 11.6319 22.3618C11.6319 21.3474 11.9869 20.536 12.697 19.8259C13.407 19.1159 14.2185 18.7609 15.2328 18.7609C16.1964 18.7609 17.0586 19.1159 17.7179 19.8259C18.3772 20.536 18.7829 21.3474 18.7829 22.311C18.7829 23.0211 18.5801 23.6297 18.2251 24.1876V22.3618C18.1236 21.8546 17.4643 21.8546 17.4643 22.3618Z" fill="black"/>
<path d="M23.9565 26.5206C24.9202 26.5206 25.8331 26.2163 26.6445 25.557C26.8474 25.4048 26.9995 25.3034 27.101 25.1512H27.1517V25.1005C27.2024 25.0498 27.2024 24.9991 27.2024 24.8977C27.2024 24.7455 27.101 24.5933 26.8981 24.5933H26.6952L26.6445 24.6948V24.7962C26.2895 25.1005 25.8838 25.4048 25.478 25.6077C25.0216 25.8105 24.5144 25.9627 24.058 25.9627C23.0436 25.9627 22.2322 25.6077 21.5729 24.8977C20.8628 24.1876 20.5078 23.3762 20.5078 22.3618C20.5078 21.3982 20.8628 20.536 21.5729 19.8767C22.2322 19.1667 23.0436 18.8624 24.058 18.8624C25.0216 18.8624 25.8838 19.2174 26.5938 19.9274L26.746 20.0289H26.9488L26.9995 19.9781C27.101 19.9274 27.1517 19.826 27.1517 19.7246V19.6231L27.101 19.5724C27.101 19.5724 27.101 19.5217 27.0503 19.5217C26.9995 19.471 26.9995 19.4203 26.9488 19.4203C26.1881 18.6088 25.1737 18.1523 23.9565 18.1523C22.7901 18.1523 21.7757 18.5581 20.9643 19.3695C20.1528 20.181 19.7471 21.1953 19.7471 22.3618C19.7471 23.4776 20.1528 24.4919 20.9643 25.3541C21.8265 26.1148 22.8408 26.5206 23.9565 26.5206Z" fill="black"/>
<path d="M34.4039 19.3188C33.5924 18.5073 32.5781 18.1016 31.4116 18.1016C30.2451 18.1016 29.2308 18.5073 28.4193 19.3188C27.6079 20.1302 27.2021 21.1446 27.2021 22.311C27.2021 23.4775 27.6079 24.4919 28.4193 25.3033C29.2815 26.1148 30.2959 26.5205 31.4623 26.5205C32.3245 26.5205 33.136 26.2669 33.7953 25.8105V25.9119C33.7953 26.2669 33.9982 26.3684 34.1503 26.3684C34.3025 26.3684 34.5053 26.2162 34.5053 25.9119V25.2526C35.3168 24.3904 35.7225 23.4268 35.7225 22.311C35.6718 21.0431 35.2661 20.0795 34.4039 19.3188ZM33.7446 22.3618V24.999C33.0346 25.6076 32.2738 25.9119 31.4116 25.9119C30.448 25.9119 29.5858 25.5569 28.8758 24.8469C28.1658 24.1876 27.8615 23.3761 27.8615 22.3618C27.8615 21.3474 28.2165 20.536 28.9265 19.8259C29.6365 19.1159 30.448 18.7609 31.4623 18.7609C32.426 18.7609 33.2881 19.1159 33.9475 19.8259C34.6575 20.536 35.0125 21.3474 35.0125 22.311C35.0125 23.0211 34.8096 23.6804 34.4546 24.2383V22.4125C34.4039 21.8546 33.7446 21.8546 33.7446 22.3618Z" fill="black"/>
<path d="M36.7369 26.368C36.9904 26.368 37.0919 26.1651 37.0919 26.013V22.7164C37.0919 21.8542 37.1426 21.3471 37.244 20.992C37.3962 20.4342 37.7005 19.9777 38.1062 19.6227C38.5119 19.2677 38.9684 19.0648 39.4755 18.9127C39.7291 18.9127 39.8306 18.7098 39.8306 18.5577C39.8306 18.3041 39.6784 18.2534 39.577 18.2026H39.5263H39.4755C39.222 18.2026 38.9177 18.3041 38.5626 18.5069C37.954 18.8112 37.4469 19.217 37.0919 19.7749C37.0919 19.4706 37.0919 19.0648 37.0919 18.6084C37.0919 18.1012 36.3818 18.1012 36.3818 18.6084V26.013C36.3818 26.2159 36.534 26.368 36.7369 26.368Z" fill="black"/>
<path d="M47.1842 19.3188C46.3727 18.5073 45.3584 18.1016 44.1919 18.1016C43.0254 18.1016 42.0111 18.5073 41.1996 19.3188C40.3882 20.1302 39.9824 21.1446 39.9824 22.311C39.9824 23.4775 40.3882 24.4919 41.1996 25.3033C42.0618 26.1148 43.0761 26.5205 44.2426 26.5205C45.4091 26.5205 46.4234 26.1148 47.2349 25.2526C48.0464 24.3904 48.4521 23.3761 48.4521 22.2096C48.4521 21.0938 48.0464 20.0795 47.1842 19.3188ZM44.1919 18.7609C45.1555 18.7609 46.0177 19.1159 46.677 19.8259C47.387 20.536 47.7421 21.3474 47.7421 22.311C47.7421 23.3254 47.387 24.1876 46.6263 24.8469C45.967 25.5569 45.1555 25.8612 44.1412 25.8612C43.1776 25.8612 42.3154 25.5062 41.6561 24.7962C40.946 24.0861 40.591 23.2747 40.591 22.311C40.591 21.2967 40.946 20.4852 41.6561 19.7752C42.3154 19.0652 43.1776 18.7609 44.1919 18.7609Z" fill="black"/>
<path d="M55.0456 20.2315C54.9441 19.6229 54.6398 19.1158 54.0819 18.6593C53.5748 18.2536 52.9662 18 52.3069 18C51.7997 18 51.3432 18.1014 50.9375 18.355C50.6332 18.5579 50.3289 18.7607 50.126 19.065V18.5579C50.126 18.0507 49.416 18.0507 49.416 18.5579V25.9625C49.416 26.2161 49.6189 26.3175 49.771 26.3175C50.0246 26.3175 50.126 26.1147 50.126 25.9625V21.753C50.126 21.2966 50.126 20.8908 50.1768 20.688C50.2782 20.0794 50.4811 19.6229 50.8361 19.2679C51.2418 18.9129 51.749 18.71 52.2561 18.71C52.6619 18.71 53.0676 18.8115 53.3719 19.0143C53.8284 19.2679 54.1327 19.6736 54.2341 20.1808C54.3355 20.4851 54.3355 21.043 54.3355 21.753V25.9625C54.3355 26.1654 54.4877 26.3175 54.6905 26.3175C54.792 26.3175 54.8934 26.2668 54.9441 26.2161H55.0963V21.398C55.147 20.9416 55.0963 20.5358 55.0456 20.2315Z" fill="black"/>
<path d="M16.3998 36.106C16.0447 36.106 15.994 36.3088 15.994 36.461C15.994 36.7146 16.1969 36.816 16.349 36.816C16.7548 36.816 17.0591 36.9174 17.4141 37.1203C18.0734 37.4753 18.4284 38.0839 18.4284 38.8447C18.4284 39.4025 18.2256 39.859 17.8198 40.2647C17.4141 40.6704 16.9576 40.8733 16.3998 40.8733C15.5883 40.8733 15.0304 40.5183 14.574 39.8083C14.4218 39.6054 14.3204 39.3011 14.3204 38.9461C14.3204 38.6925 14.1682 38.5404 13.9654 38.5404C13.7118 38.5404 13.6104 38.7432 13.6104 38.8954C13.6104 39.6054 13.9147 40.2647 14.4725 40.7212C14.9797 41.2283 15.639 41.4819 16.349 41.4819C17.1098 41.4819 17.7691 41.2283 18.2763 40.6705C18.7834 40.1633 19.0877 39.504 19.0877 38.7432C19.0877 37.9825 18.8342 37.3739 18.327 36.8667C17.8198 36.4103 17.1605 36.106 16.3998 36.106Z" fill="black"/>
<path d="M16.247 33.9757C16.9063 33.9757 17.3628 34.2293 17.6671 34.7872C17.7178 34.8886 17.8192 35.0915 17.87 35.2944C17.87 35.5479 18.0221 35.7001 18.225 35.7001C18.4278 35.7001 18.58 35.5479 18.58 35.3451C18.58 34.7365 18.2757 34.2293 17.7685 33.925C17.3121 33.5193 16.8049 33.3164 16.1963 33.3164C15.5877 33.3164 15.0298 33.5193 14.5734 33.9757C14.1676 34.4829 13.9141 34.9901 13.9141 35.5987C13.9141 36.2073 14.1169 36.7651 14.5734 37.2216C14.9791 37.678 15.537 37.9316 16.1456 37.9316C16.3992 37.9316 16.5513 37.7795 16.5513 37.5766C16.5513 37.3737 16.3992 37.2216 16.1963 37.2216C15.7399 37.2216 15.3848 37.0694 15.0805 36.7651C14.7762 36.4608 14.6241 36.0551 14.6241 35.5987C14.6241 35.1422 14.7762 34.7365 15.0805 34.4322C15.4863 34.1279 15.8413 33.9757 16.247 33.9757Z" fill="black"/>
<path d="M25.2244 36.7143C25.2244 36.1564 25.1737 35.7507 25.123 35.4971C24.9708 34.8378 24.6665 34.3306 24.2101 33.9756C23.7029 33.5191 23.1957 33.3163 22.5364 33.3163C22.08 33.3163 21.6235 33.4177 21.2178 33.6713C20.8628 33.8234 20.6092 34.077 20.4063 34.3306V31.2876C20.4063 30.7804 19.6963 30.7804 19.6963 31.2876V40.9745C19.6963 41.2281 19.8992 41.3295 20.0513 41.3295C20.3049 41.3295 20.4063 41.1266 20.4063 40.9745V36.9171C20.4063 36.6128 20.4063 36.3593 20.457 36.1564C20.457 36.0042 20.457 35.9028 20.457 35.8521C20.5585 35.2942 20.7613 34.8378 21.1164 34.4827C21.5221 34.1277 21.9278 33.9756 22.5364 33.9756C22.9422 33.9756 23.3479 34.077 23.6522 34.2799C24.1086 34.5842 24.3622 34.9392 24.4636 35.3956C24.5651 35.6999 24.5651 36.2071 24.5651 36.9171V40.9745C24.5651 41.1773 24.7172 41.3295 24.9201 41.3295C25.1737 41.3295 25.2751 41.1266 25.2751 40.9745L25.2244 40.7209V36.7143Z" fill="black"/>
<path d="M33.035 34.4828C32.2236 33.6714 31.2599 33.2656 30.1442 33.2656C29.0284 33.2656 28.0141 33.6714 27.2533 34.4828C26.4419 35.2943 26.0361 36.2579 26.0361 37.3737C26.0361 38.4894 26.4419 39.5038 27.2533 40.2645C28.0648 41.076 29.0284 41.4817 30.1949 41.4817C31.3614 41.4817 32.325 41.076 33.0857 40.2645C33.8972 39.4531 34.3029 38.4894 34.3029 37.323C34.3029 36.1565 33.8972 35.2436 33.035 34.4828ZM27.7098 39.8081C27.0505 39.1488 26.6954 38.3373 26.6954 37.3737C26.6954 36.4101 27.0505 35.5986 27.7098 34.8886C28.3691 34.2292 29.1806 33.8742 30.1949 33.8742C31.1078 33.8742 31.97 34.2292 32.6293 34.8886C33.2886 35.5479 33.6436 36.3593 33.6436 37.323C33.6436 38.2866 33.2886 39.1488 32.5786 39.8081C31.9193 40.4674 31.1078 40.8224 30.1442 40.8224C29.2313 40.8224 28.3691 40.4674 27.7098 39.8081Z" fill="black"/>
<path d="M39.07 33.2656C37.9035 33.2656 36.9399 33.6714 36.1791 34.4828C35.4184 35.2943 34.9619 36.2579 34.9619 37.3737C34.9619 38.4894 35.3676 39.4531 36.1284 40.2645V43.5611C36.1284 43.764 36.2805 43.9161 36.4834 43.9161C36.737 43.9161 36.8384 43.7132 36.8384 43.5611V40.8731C37.4977 41.3296 38.2585 41.5324 39.07 41.5324C40.2364 41.5324 41.2508 41.1267 42.0115 40.3659C42.823 39.5545 43.2794 38.6416 43.2794 37.4751C43.2794 36.3086 42.823 35.345 42.0115 34.5335C41.2001 33.6714 40.2364 33.2656 39.07 33.2656ZM36.4834 37.0187C36.3313 37.0187 36.1284 37.1708 36.1284 37.4244V39.1488C35.8241 38.6416 35.6719 38.033 35.6719 37.3737C35.6719 36.4608 36.027 35.5986 36.6863 34.9393C37.3963 34.2292 38.2078 33.9249 39.1714 33.9249C40.135 33.9249 40.9465 34.28 41.6565 34.9393C42.3158 35.5986 42.6708 36.4101 42.6708 37.4244C42.6708 38.388 42.3158 39.1995 41.6058 39.8588C40.9465 40.5181 40.135 40.8731 39.1714 40.8731C38.3092 40.8731 37.5485 40.5688 36.8891 39.9602V37.4244C36.8384 37.0694 36.6356 37.0187 36.4834 37.0187Z" fill="black"/>
</svg>
